<?xml version="1.0" encoding="UTF-8"?>
<!DOCTYPE svg PUBLIC "-//W3C//DTD SVG 1.1//EN" "http://www.w3.org/Graphics/SVG/1.1/DTD/svg11.dtd">
<svg version="1.1" xmlns="http://www.w3.org/2000/svg" xmlns:xlink="http://www.w3.org/1999/xlink" x="0" y="0" width="85" height="105" viewBox="0, 0, 85, 105">
  <g id="Layer_1">
    <g>
      <path d="M15.032,40.22 L4.802,22.5 L15.032,4.78 L35.493,4.78 L45.723,22.5 L35.493,40.22 z" fill="#FFEEEE"/>
      <path d="M15.032,40.22 L4.802,22.5 L15.032,4.78 L35.493,4.78 L45.723,22.5 L35.493,40.22 z" fill-opacity="0" stroke="#000000" stroke-width="1"/>
    </g>
    <g>
      <path d="M48.809,60.5 L38.578,42.78 L48.809,25.061 L69.27,25.061 L79.5,42.78 L69.27,60.5 z" fill="#FFEEEE"/>
      <path d="M48.809,60.5 L38.578,42.78 L48.809,25.061 L69.27,25.061 L79.5,42.78 L69.27,60.5 z" fill-opacity="0" stroke="#000000" stroke-width="1"/>
    </g>
    <g>
      <path d="M15.032,80.5 L4.802,62.78 L15.032,45.061 L35.493,45.061 L45.723,62.78 L35.493,80.5 z" fill="#FFCCCC"/>
      <path d="M15.032,80.5 L4.802,62.78 L15.032,45.061 L35.493,45.061 L45.723,62.78 L35.493,80.5 z" fill-opacity="0" stroke="#000000" stroke-width="1"/>
    </g>
    <g>
      <path d="M49.809,99.5 L39.578,81.78 L49.809,64.061 L70.27,64.061 L80.5,81.78 L70.27,99.5 z" fill="#FFEEEE"/>
      <path d="M49.809,99.5 L39.578,81.78 L49.809,64.061 L70.27,64.061 L80.5,81.78 L70.27,99.5 z" fill-opacity="0" stroke="#000000" stroke-width="1"/>
    </g>
  </g>
</svg>
